<svg version="1.1" xmlns="http://www.w3.org/2000/svg" xmlns:xlink="http://www.w3.org/1999/xlink" width="700" height="700" viewBox="940,134,700,700"><g id="document" fill="#ffffff" fill-rule="nonzero" stroke="#000000" stroke-width="0" stroke-linecap="butt" stroke-linejoin="miter" stroke-miterlimit="10" stroke-dasharray="" stroke-dashoffset="0" font-family="none" font-weight="none" font-size="none" text-anchor="none" style="mix-blend-mode: normal"><rect x="940" y="95.71429" transform="scale(1,1.4)" width="700" height="500" id="Shape 1 1" vector-effect="non-scaling-stroke"/></g><g fill="none" fill-rule="nonzero" stroke="#000000" stroke-width="1" stroke-linecap="round" stroke-linejoin="round" stroke-miterlimit="10" stroke-dasharray="" stroke-dashoffset="0" font-family="none" font-weight="none" font-size="none" text-anchor="none" style="mix-blend-mode: normal"><g id="stage"><g id="layer1 1"><path d="M974,479l62,-276l142,-43l408,25l35,198l-61,99l-40,-239l-288,-28l-150,56l-26,325l323,129l136,-51l33,115l-266,-28l-290,-129z" id="Path 1"/><path d="M1227,299l-74,111l26,174l99,-184z" id="Path 1"/><path d="M1391,293l-2,95l114,-4l-13,-99z" id="Path 1"/><path d="M1322,512l-33,128l93,47l81,-128z" id="Path 1"/><path d="M1340,419l-29,39l307,161l8,-44z" id="Path 1"/></g></g></g></svg>